<?xml version="1.0" standalone="no"?>
<!DOCTYPE svg PUBLIC "-//W3C//DTD SVG 20010904//EN"
 "http://www.w3.org/TR/2001/REC-SVG-20010904/DTD/svg10.dtd">
<svg version="1.0" xmlns="http://www.w3.org/2000/svg"
 width="300.000000pt" height="300.000000pt" viewBox="0 0 300.000000 300.000000"
 preserveAspectRatio="xMidYMid meet">
<metadata>
Created by potrace 1.11, written by Peter Selinger 2001-2013
</metadata>
<g transform="translate(0.000000,300.000000) scale(0.100000,-0.100000)"
fill="#000000" stroke="none">
<path d="M1974 2097 c-5 -14 -9 -15 -20 -6 -11 9 -14 8 -14 -7 0 -16 -2 -17
-10 -4 -8 12 -10 12 -10 1 0 -11 -3 -11 -17 0 -11 10 -14 10 -9 2 7 -12 -11
-18 -37 -14 -5 1 -6 -2 -3 -7 2 -4 -4 -14 -16 -21 -11 -7 -17 -8 -13 -2 3 6 2
11 -4 11 -5 0 -13 -10 -16 -21 -6 -17 -9 -19 -16 -8 -7 11 -9 11 -9 1 0 -7 -4
-11 -9 -8 -5 3 -8 -2 -7 -12 1 -12 -5 -16 -19 -14 -11 2 -17 1 -13 -3 10 -11
-11 -47 -23 -39 -6 3 -9 -2 -7 -12 2 -11 -2 -18 -9 -17 -7 2 -10 -3 -7 -11 3
-8 1 -17 -5 -20 -6 -4 -8 -13 -4 -21 3 -8 0 -15 -7 -15 -9 0 -9 -4 1 -17 8 -9
9 -14 3 -10 -7 4 -15 -1 -18 -10 -4 -9 -2 -20 5 -23 8 -6 8 -9 0 -14 -14 -9
-14 -26 0 -26 5 0 7 6 3 13 -4 6 -3 9 1 4 5 -4 8 -28 8 -52 -1 -25 2 -43 7
-40 4 3 11 -2 14 -11 4 -10 2 -13 -7 -9 -6 4 -5 1 4 -7 9 -7 14 -19 11 -27 -3
-9 0 -11 8 -6 10 6 12 4 7 -8 -3 -10 -2 -17 3 -17 5 0 18 -10 30 -22 11 -12
20 -16 20 -9 0 7 4 10 10 6 5 -3 7 -11 4 -18 -2 -7 3 -13 13 -14 30 -2 52 -9
60 -18 4 -4 3 -5 -4 -1 -6 3 -15 1 -20 -6 -9 -14 -43 -20 -43 -8 0 9 -75 4
-91 -5 -5 -4 -9 -2 -9 3 0 10 -42 8 -61 -4 -8 -5 -9 -3 -4 5 6 10 3 11 -13 2
-15 -8 -21 -8 -25 2 -3 9 -7 9 -20 -2 -14 -11 -17 -11 -17 0 0 11 -2 11 -10
-1 -7 -11 -10 -11 -10 -2 0 10 -5 10 -20 2 -14 -7 -20 -7 -20 0 0 5 -5 10 -11
10 -5 0 -7 -6 -3 -12 4 -8 3 -10 -2 -5 -5 5 -9 18 -9 30 -1 13 -6 21 -14 19
-7 -1 -10 2 -6 8 3 6 11 8 16 5 5 -4 9 -1 9 4 0 6 -6 11 -12 11 -9 0 -8 4 2
10 12 8 12 10 -5 11 -11 0 -14 3 -7 6 10 4 10 8 0 21 -11 13 -11 14 2 7 13 -8
13 -7 1 8 -9 11 -10 17 -2 17 6 0 11 5 11 10 0 6 -3 9 -7 9 -20 -3 -24 2 -14
15 8 10 9 16 1 21 -6 3 -8 11 -5 16 4 5 2 9 -3 9 -16 0 -33 48 -19 54 7 2 4 5
-6 5 -10 1 -15 6 -12 11 3 6 1 10 -5 10 -6 0 -8 5 -5 10 3 6 1 10 -6 10 -7 0
-9 8 -6 21 5 17 3 18 -9 8 -12 -10 -15 -10 -12 2 2 8 -3 13 -9 11 -7 -1 -13 5
-13 14 0 9 5 12 12 8 7 -4 8 -3 4 5 -4 6 -11 9 -16 6 -4 -3 -16 3 -27 13 -10
9 -12 13 -4 7 11 -8 13 -7 7 3 -4 7 -19 17 -32 22 -13 5 -23 15 -22 22 2 7 -4
13 -12 14 -8 0 -21 2 -28 2 -8 1 -10 7 -6 15 4 6 4 9 -1 5 -4 -4 -21 0 -37 8
-23 12 -28 12 -22 2 9 -15 -25 9 -38 27 -5 6 -8 5 -8 -3 0 -10 -3 -10 -15 2
-11 11 -23 12 -45 6 -20 -6 -28 -5 -24 1 3 6 -2 10 -12 8 -11 -1 -26 1 -34 4
-27 11 -150 13 -150 2 0 -7 -3 -7 -8 0 -4 6 -52 10 -107 10 -55 0 -103 -4
-107 -10 -5 -7 -8 -7 -8 0 0 6 -11 10 -24 10 -13 0 -22 -3 -19 -7 2 -5 0 -8
-4 -8 -5 0 -9 -13 -9 -30 -1 -16 1 -28 5 -26 4 3 7 -4 7 -15 0 -10 -3 -19 -6
-19 -4 0 -5 -29 -4 -65 1 -43 -2 -65 -10 -65 -6 0 -3 -5 7 -11 10 -6 14 -15
10 -22 -11 -18 -10 -51 2 -59 5 -4 1 -8 -10 -8 -12 0 -16 -3 -9 -8 14 -9 26
-42 15 -42 -4 0 -7 -40 -6 -90 2 -72 -1 -90 -12 -90 -8 0 -12 -4 -9 -8 7 -12
-37 -9 -46 2 -4 6 -13 4 -22 -3 -13 -11 -16 -11 -16 0 0 11 -2 11 -10 -1 -7
-11 -10 -11 -10 -2 0 7 -5 10 -11 7 -6 -4 -8 -13 -5 -20 3 -8 0 -16 -7 -19 -9
-3 -8 -7 2 -14 8 -6 9 -11 2 -13 -6 -2 -7 -10 -3 -17 9 -13 102 -23 102 -11 0
4 9 5 19 2 21 -5 31 -39 26 -90 -2 -18 1 -33 7 -33 5 0 6 -6 1 -12 -11 -18
-11 -30 -1 -50 5 -10 5 -18 0 -18 -5 0 -8 -33 -8 -74 1 -42 5 -72 10 -69 5 4
6 1 2 -6 -14 -23 -17 -61 -4 -66 31 -11 88 -12 88 -1 0 6 4 5 9 -3 6 -10 10
-10 16 -1 6 9 10 9 16 -1 7 -11 9 -11 9 -1 0 7 5 10 11 6 18 -11 169 -10 169
1 0 6 5 3 10 -5 9 -13 10 -13 10 0 0 13 1 13 10 0 7 -11 10 -11 10 -2 0 7 5
10 11 7 15 -10 69 -13 63 -4 -2 4 0 10 6 14 5 3 10 1 10 -4 0 -6 5 -11 11 -11
5 0 7 6 3 13 -5 7 0 6 11 -3 10 -8 16 -10 12 -4 -9 16 18 25 32 11 8 -8 11 -8
11 2 0 7 5 11 12 9 6 -2 20 4 31 15 15 15 21 16 35 5 11 -9 14 -10 8 0 -5 8
-1 12 13 12 11 0 25 8 30 18 6 9 11 13 11 8 0 -5 8 -2 17 5 14 12 16 12 8 0
-6 -10 -4 -12 4 -7 7 5 10 15 6 23 -5 14 -3 14 12 2 14 -12 16 -12 8 0 -6 11
-4 13 8 8 12 -4 14 -2 10 10 -5 13 -2 15 12 9 11 -4 16 -4 13 0 -11 11 12 46
26 41 9 -4 13 3 12 16 0 12 4 21 10 20 7 -1 15 9 18 23 4 16 11 22 19 18 7 -4
9 -4 5 1 -4 4 -2 15 5 23 10 13 9 15 -3 8 -8 -4 -6 0 4 8 11 9 16 16 12 16 -5
0 -4 6 1 13 6 6 9 20 8 29 -2 10 0 17 3 17 20 -3 25 2 12 11 -9 6 -11 10 -3
10 7 0 10 6 7 14 -4 10 8 13 55 12 35 -1 61 3 61 9 0 7 3 7 8 0 4 -5 31 -10
60 -10 28 0 52 5 52 10 0 7 3 7 8 0 4 -5 30 -10 57 -10 28 0 53 5 57 10 5 7 8
6 8 0 0 -6 9 -11 20 -11 11 0 20 4 20 8 0 5 9 4 19 -2 14 -7 21 -6 24 3 3 6 6
8 6 2 1 -6 72 -9 196 -8 115 1 193 -3 189 -8 -3 -5 0 -9 6 -9 6 0 21 -10 33
-21 12 -12 15 -18 7 -14 -13 8 -13 6 -1 -8 7 -9 11 -26 8 -37 -3 -13 -1 -18 6
-13 10 6 7 -12 -9 -51 -6 -15 -4 -17 7 -11 11 6 11 5 2 -5 -6 -7 -9 -19 -6
-28 4 -10 2 -13 -5 -8 -7 4 -12 1 -12 -8 0 -9 -5 -16 -11 -16 -6 0 -9 -7 -5
-15 4 -13 2 -14 -14 -5 -16 9 -19 8 -13 -7 5 -12 2 -15 -10 -10 -9 3 -19 1
-23 -5 -5 -7 -2 -8 6 -3 9 6 11 4 5 -4 -4 -7 -16 -11 -26 -8 -11 3 -17 2 -14
-3 3 -4 -2 -11 -11 -14 -8 -3 -13 -2 -10 2 3 5 -1 9 -9 9 -8 0 -12 -4 -9 -9 5
-8 -10 -12 -30 -9 -4 1 -14 -3 -20 -9 -7 -5 -16 -7 -20 -3 -11 11 -40 10 -48
-2 -5 -6 -8 -5 -8 3 0 10 -5 10 -20 2 -17 -9 -20 -8 -20 7 0 12 -3 14 -8 6 -4
-7 -17 -10 -30 -6 -12 3 -19 10 -15 16 3 6 1 7 -6 3 -6 -4 -19 -2 -28 6 -15
11 -16 11 -10 -6 7 -17 6 -17 -10 -5 -10 8 -21 19 -25 24 -5 6 -8 5 -8 -2 0
-7 -5 -13 -11 -13 -6 0 -9 7 -6 14 4 10 1 13 -9 9 -8 -3 -14 1 -14 8 0 10 -3
10 -12 1 -15 -15 -32 -16 -23 -2 3 6 1 10 -5 10 -6 0 -8 5 -5 10 4 6 -7 10
-24 10 -22 0 -31 5 -31 16 0 10 -6 14 -15 11 -8 -4 -17 -1 -21 5 -5 7 -2 8 6
3 8 -5 11 -4 6 3 -4 6 -13 9 -21 5 -10 -3 -15 1 -15 13 0 24 -10 12 -16 -21
-3 -16 -1 -24 5 -21 6 4 7 -5 1 -24 -5 -17 -5 -32 0 -35 5 -3 7 -12 4 -20 -4
-8 -11 -12 -16 -9 -6 4 -5 -2 1 -14 6 -12 19 -26 29 -32 14 -9 13 -10 -8 -6
-21 5 -21 4 5 -8 17 -8 33 -12 38 -9 4 2 7 0 7 -6 0 -6 7 -8 15 -5 8 4 15 1
15 -5 0 -6 7 -8 15 -5 8 4 15 1 15 -6 0 -7 7 -10 15 -6 8 3 15 1 15 -4 0 -6 5
-10 11 -10 5 0 7 4 4 10 -3 6 1 7 9 4 9 -3 13 -11 10 -16 -4 -6 2 -5 14 1 26
14 42 14 22 0 -11 -8 -7 -9 18 -6 19 2 37 -2 44 -10 8 -10 14 -10 24 -2 9 7
14 8 14 1 0 -11 18 -11 38 1 7 5 12 3 12 -5 0 -9 3 -9 10 2 7 11 10 11 10 2 0
-10 5 -10 20 -2 11 6 20 7 20 2 0 -10 36 -9 46 1 12 12 26 8 18 -5 -6 -9 -3
-9 9 0 9 8 21 11 27 7 5 -3 10 -1 10 6 0 8 4 8 15 -1 13 -11 14 -10 9 3 -4 12
-1 15 15 12 12 -2 21 1 21 7 0 6 6 6 15 -2 13 -11 14 -10 9 5 -5 13 -4 16 4
11 7 -4 12 -2 12 5 0 7 3 10 6 7 3 -4 22 5 41 18 19 13 39 21 44 18 5 -3 9 -2
8 3 -3 20 2 34 11 28 6 -4 15 7 21 24 6 17 15 28 20 25 8 -5 13 9 10 29 0 4 4
7 10 7 5 0 7 5 4 10 -3 6 -1 10 6 10 8 0 8 4 -1 15 -11 13 -10 14 2 10 11 -4
14 0 13 17 -1 13 3 29 9 37 8 11 8 13 0 8 -7 -4 -11 3 -11 18 -1 14 4 28 9 31
5 3 2 14 -8 25 -9 10 -12 19 -6 19 5 0 8 9 4 22 -4 17 -2 20 11 15 10 -4 17
-1 17 6 0 7 3 8 8 2 14 -20 41 -13 50 14 7 19 6 36 -3 57 -8 16 -14 22 -14 14
-1 -13 -3 -13 -10 -1 -8 12 -12 12 -25 2 -13 -11 -16 -11 -16 0 0 11 -2 11
-10 -1 -5 -8 -10 -10 -10 -4 0 12 -41 11 -59 -1 -6 -3 -11 -1 -11 5 0 7 -7 9
-16 6 -8 -3 -13 -2 -11 2 3 4 -1 13 -9 20 -10 9 -14 9 -14 1 0 -8 -4 -9 -13 0
-8 6 -18 7 -23 3 -4 -4 -2 2 6 13 8 11 11 17 6 13 -5 -4 -18 -3 -29 3 -15 9
-18 8 -12 -3 6 -10 5 -11 -6 0 -7 6 -21 12 -32 12 -10 0 -16 4 -13 8 4 7 -16
11 -77 13 -9 0 -15 4 -12 10 4 5 1 9 -4 9 -6 0 -11 -6 -11 -12 -1 -9 -4 -8 -9
2 -6 10 -24 15 -50 14 -23 0 -41 3 -41 6 0 4 -13 6 -30 4 -16 -2 -30 0 -30 5
0 5 -7 12 -16 15 -14 5 -15 4 -4 -9 16 -19 6 -20 -13 0 -8 8 -29 16 -45 17
-20 1 -28 6 -25 15 4 9 0 11 -13 6 -14 -5 -16 -3 -10 12 4 11 4 16 0 13 -10
-11 -32 16 -36 43 -1 13 -7 27 -13 32 -6 4 -3 13 9 22 11 8 14 15 8 15 -7 0
-11 6 -9 13 1 6 -4 11 -11 9 -8 -1 -11 2 -7 8 3 6 11 8 16 5 5 -4 9 0 9 8 0
17 45 67 60 67 5 0 9 5 8 11 -2 6 3 14 11 17 9 3 11 0 7 -9 -4 -8 1 -4 11 9
15 18 21 20 31 10 9 -9 12 -8 12 5 0 9 5 17 11 17 5 0 7 -4 4 -10 -4 -6 3 -6
21 0 15 6 36 8 47 4 15 -5 17 -3 11 7 -6 11 -5 12 7 2 12 -10 18 -10 27 -1 7
7 12 8 12 2 0 -5 11 -11 26 -12 17 -1 23 2 18 11 -4 6 3 3 16 -8 14 -12 20
-14 15 -5 -5 10 -1 8 13 -4 12 -10 28 -16 36 -13 8 3 17 1 20 -6 3 -9 8 -8 15
3 10 14 16 7 12 -13 -1 -5 4 -5 10 -1 6 3 14 2 18 -4 4 -7 18 -13 31 -14 14
-2 33 -12 43 -23 10 -11 15 -14 12 -7 -6 11 -3 12 14 3 11 -7 21 -14 21 -17 0
-3 -6 -2 -12 2 -7 4 -10 3 -5 -1 16 -18 45 -12 50 11 2 13 1 21 -3 19 -4 -3
-10 4 -13 15 -3 11 -2 18 3 15 4 -3 10 2 14 10 3 8 1 15 -5 15 -6 0 -7 6 -2
13 11 18 13 38 1 31 -5 -3 -8 2 -6 12 2 14 -2 18 -16 16 -12 -2 -16 1 -10 10
4 7 4 10 -1 6 -4 -4 -15 -2 -23 5 -13 10 -14 9 -7 -3 6 -9 -5 -6 -29 8 -34 20
-38 21 -32 5 4 -13 0 -11 -14 6 -11 13 -20 19 -20 14 0 -5 -9 -9 -19 -9 -11 0
-17 5 -14 10 4 5 -3 7 -16 3 -18 -4 -21 -2 -17 11 5 15 4 15 -8 -1 -12 -16
-14 -16 -20 -1 -5 12 -10 14 -19 5 -10 -8 -17 -7 -25 1 -9 9 -12 9 -12 0 0 -6
-6 -9 -12 -7 -26 10 -79 12 -84 4 -3 -5 -14 -5 -24 1 -13 7 -21 7 -26 -1 -4
-8 -9 -7 -15 2 -6 11 -9 10 -15 -4z m256 -121 c0 -3 -4 -8 -10 -11 -5 -3 -10
-1 -10 4 0 6 5 11 10 11 6 0 10 -2 10 -4z m-1414 -25 c10 8 14 8 14 0 0 -6 5
-11 11 -11 5 0 7 5 3 11 -4 8 -1 8 12 1 11 -5 30 -8 43 -6 13 3 31 -1 39 -8 9
-7 13 -8 9 -2 -4 6 2 10 15 9 12 -1 24 -7 26 -13 2 -6 10 -8 18 -5 8 3 14 1
14 -4 0 -4 14 -9 31 -9 17 -1 34 -6 38 -10 3 -5 13 -10 21 -12 8 -2 16 -7 18
-12 2 -5 20 -21 40 -36 29 -21 33 -23 18 -6 -11 12 -15 22 -10 22 13 0 36 -39
29 -50 -4 -6 2 -7 12 -3 10 3 15 3 11 -2 -4 -4 1 -15 10 -24 10 -9 13 -14 7
-11 -6 3 -2 -3 8 -12 12 -11 14 -18 7 -18 -7 0 -3 -9 10 -20 15 -13 18 -20 9
-21 -10 0 -11 -2 -1 -6 7 -2 12 -22 12 -44 0 -21 5 -39 10 -39 6 0 10 -5 10
-11 0 -5 -4 -7 -10 -4 -6 4 -7 -2 -1 -17 4 -13 6 -29 3 -37 -3 -10 0 -11 9 -5
11 6 12 5 2 -8 -7 -8 -11 -17 -8 -19 2 -3 -8 -4 -23 -4 -15 1 -37 -2 -49 -7
-13 -4 -23 -4 -23 1 0 10 -43 6 -61 -5 -8 -5 -9 -3 -4 5 6 10 3 11 -13 2 -15
-8 -21 -8 -25 2 -3 9 -7 9 -20 -2 -14 -11 -17 -11 -17 0 0 11 -2 11 -10 -1 -5
-8 -10 -10 -10 -4 0 11 -52 10 -71 -1 -5 -4 -9 -2 -9 3 0 10 -54 7 -71 -3 -5
-4 -9 -2 -9 3 0 9 -47 8 -57 -2 -3 -2 -16 -1 -29 4 -17 7 -24 6 -24 -3 0 -7
-3 -8 -8 -2 -8 11 -47 13 -58 2 -4 -3 -15 3 -25 15 -24 26 -24 35 -2 17 15
-13 15 -12 5 7 -8 14 -8 24 -1 31 8 8 7 13 -2 18 -8 6 -10 4 -4 -5 6 -9 4 -11
-4 -6 -9 6 -8 12 4 26 12 14 13 20 4 26 -8 5 -10 3 -4 -6 5 -9 4 -11 -4 -6 -9
6 -9 11 0 22 9 11 9 14 0 14 -7 0 -9 5 -6 10 4 6 11 7 17 4 7 -4 7 0 0 12 -5
11 -7 25 -4 33 3 9 0 11 -9 6 -11 -6 -12 -5 -1 6 6 7 12 17 12 22 0 4 -6 5
-12 2 -7 -4 -4 1 6 9 20 16 20 16 0 16 -11 0 -15 3 -8 8 17 11 24 41 12 48 -7
5 -8 2 -3 -6 6 -9 4 -11 -4 -6 -9 6 -8 12 4 26 12 14 13 20 4 26 -8 5 -10 3
-4 -6 5 -9 4 -11 -4 -6 -9 6 -9 11 0 22 9 11 9 14 0 14 -7 0 -9 5 -6 10 4 6
10 8 15 5 4 -3 6 4 3 15 -3 11 -10 17 -16 13 -5 -3 -7 -1 -4 4 4 6 32 10 62 9
31 0 55 3 56 9 0 5 3 4 6 -3 4 -10 8 -10 19 -1z m1314 -351 c0 -5 -5 -10 -11
-10 -5 0 -7 5 -4 10 3 6 8 10 11 10 2 0 4 -4 4 -10z m-1305 -195 c28 0 53 5
57 10 5 7 8 7 8 0 0 -5 11 -10 25 -10 14 0 25 5 25 10 0 6 5 3 10 -5 9 -13 10
-13 10 0 0 9 3 11 8 5 4 -5 30 -10 57 -10 28 0 53 5 57 10 5 7 8 7 8 0 0 -13
103 -13 112 0 5 6 8 6 8 -1 0 -7 15 -10 39 -7 42 4 41 7 29 -74 -1 -6 -8 -9
-15 -6 -9 3 -14 0 -13 -8 4 -28 0 -40 -11 -33 -7 4 -10 1 -7 -7 3 -8 -6 -24
-19 -37 -13 -12 -21 -27 -17 -33 4 -7 -1 -7 -16 1 -12 7 -20 8 -17 3 2 -4 -5
-17 -16 -28 -11 -11 -16 -13 -12 -5 8 13 7 13 -11 0 -10 -8 -24 -21 -30 -29
-6 -8 -18 -12 -26 -8 -9 3 -26 -2 -39 -10 -12 -9 -19 -12 -16 -6 4 6 0 13 -8
16 -10 4 -12 1 -8 -10 4 -11 2 -14 -5 -9 -7 4 -12 2 -12 -6 0 -10 -2 -10 -9 1
-5 7 -14 10 -20 7 -6 -4 -8 -12 -5 -18 5 -7 2 -8 -7 -2 -8 5 -67 8 -133 6
-100 -1 -117 1 -112 13 3 8 0 17 -6 21 -7 5 -8 2 -3 -6 5 -9 4 -11 -4 -6 -9 6
-9 11 0 22 9 11 9 14 0 14 -7 0 -9 5 -6 10 4 6 11 7 17 4 7 -4 7 0 0 12 -5 11
-7 25 -4 33 3 9 0 11 -9 7 -8 -4 -5 0 5 8 18 15 15 21 -8 17 -5 -1 -4 5 4 13
9 12 9 16 1 16 -7 0 -9 5 -6 10 4 6 10 8 15 5 4 -3 7 3 5 12 -2 10 -4 22 -4
26 -1 5 -7 5 -13 1 -7 -4 -5 2 5 13 14 16 15 23 6 29 -8 5 -10 3 -4 -6 6 -9 4
-11 -5 -5 -20 13 19 37 53 32 15 -2 27 1 27 7 0 7 3 7 8 1 4 -5 30 -10 57 -10z"/>
<path d="M1075 1160 c-3 -5 -1 -10 4 -10 6 0 11 5 11 10 0 6 -2 10 -4 10 -3 0
-8 -4 -11 -10z"/>
<path d="M1122 1031 c-11 -7 -11 -9 0 -14 9 -3 15 1 15 9 0 8 -1 14 -1 14 -1
0 -7 -4 -14 -9z"/>
<path d="M2335 1020 c-3 -5 -1 -10 4 -10 6 0 11 5 11 10 0 6 -2 10 -4 10 -3 0
-8 -4 -11 -10z"/>
</g>
</svg>
